<svg width="122" height="123" viewBox="0 0 122 123" fill="none" xmlns="http://www.w3.org/2000/svg">
<rect x="1.19" y="1.96997" width="119.59" height="119.59" rx="59.795" stroke="#006699" stroke-width="2"/>
<g clip-path="url(#clip0_2_88)">
<path d="M88.105 53.095H85.73C85.5217 52.3866 85.2717 51.6991 84.98 51.0325C84.6883 50.3658 84.3758 49.6991 84.0425 49.0325C84.2925 48.8241 84.5633 48.5741 84.855 48.2825C85.1467 47.9908 85.4383 47.6991 85.73 47.4075C86.6883 46.4491 87.1675 45.2929 87.1675 43.9387C87.1675 42.5846 86.6883 41.4283 85.73 40.47L81.48 36.22C80.5217 35.2616 79.3654 34.7825 78.0113 34.7825C76.6571 34.7825 75.5008 35.2616 74.5425 36.22C74.2508 36.5116 73.9592 36.8033 73.6675 37.095C73.3758 37.3866 73.1258 37.6575 72.9175 37.9075C72.2508 37.5741 71.5842 37.2616 70.9175 36.97C70.2508 36.6783 69.5633 36.4283 68.855 36.22V33.845C68.855 32.5116 68.3863 31.3658 67.4488 30.4075C66.5113 29.4491 65.355 28.97 63.98 28.97H57.98C56.605 28.97 55.4488 29.4491 54.5113 30.4075C53.5738 31.3658 53.105 32.5116 53.105 33.845V36.22C52.3967 36.4283 51.7092 36.6783 51.0425 36.97C50.3758 37.2616 49.7092 37.5741 49.0425 37.9075C48.8342 37.6575 48.5842 37.3866 48.2925 37.095C48.0008 36.8033 47.7092 36.5116 47.4175 36.22C46.4592 35.2616 45.3029 34.7825 43.9488 34.7825C42.5946 34.7825 41.4383 35.2616 40.48 36.22L36.23 40.47C35.2717 41.4283 34.7925 42.5846 34.7925 43.9387C34.7925 45.2929 35.2717 46.4491 36.23 47.4075C36.5217 47.6991 36.8133 47.9908 37.105 48.2825C37.3967 48.5741 37.6675 48.8241 37.9175 49.0325C37.5842 49.6991 37.2717 50.3658 36.98 51.0325C36.6883 51.6991 36.4383 52.3866 36.23 53.095H33.855C32.5217 53.095 31.3758 53.5637 30.4175 54.5012C29.4592 55.4387 28.98 56.595 28.98 57.97V63.97C28.98 65.345 29.4592 66.5012 30.4175 67.4387C31.3758 68.3762 32.5217 68.845 33.855 68.845H36.23C36.4383 69.5533 36.6883 70.2408 36.98 70.9075C37.2717 71.5741 37.5842 72.2408 37.9175 72.9075C37.6675 73.1158 37.3967 73.3658 37.105 73.6575C36.8133 73.9491 36.5217 74.2408 36.23 74.5325C35.2717 75.4908 34.7925 76.6471 34.7925 78.0012C34.7925 79.3554 35.2717 80.5116 36.23 81.47L40.48 85.72C41.4383 86.6783 42.5946 87.1575 43.9488 87.1575C45.3029 87.1575 46.4592 86.6783 47.4175 85.72C47.7092 85.4283 48.0008 85.1366 48.2925 84.845C48.5842 84.5533 48.8342 84.2825 49.0425 84.0325C49.7092 84.3658 50.3758 84.6783 51.0425 84.97C51.7092 85.2616 52.3967 85.5116 53.105 85.72V88.095C53.105 89.4283 53.5738 90.5741 54.5113 91.5325C55.4488 92.4908 56.605 92.97 57.98 92.97H63.98C65.355 92.97 66.5113 92.4908 67.4488 91.5325C68.3863 90.5741 68.855 89.4283 68.855 88.095V85.72C69.5633 85.5116 70.2508 85.2616 70.9175 84.97C71.5842 84.6783 72.2508 84.3658 72.9175 84.0325C73.1258 84.2825 73.3758 84.5533 73.6675 84.845C73.9592 85.1366 74.2508 85.4283 74.5425 85.72C75.5008 86.6783 76.6571 87.1575 78.0113 87.1575C79.3654 87.1575 80.5217 86.6783 81.48 85.72L85.73 81.47C86.6883 80.5116 87.1675 79.3554 87.1675 78.0012C87.1675 76.6471 86.6883 75.4908 85.73 74.5325C85.4383 74.2408 85.1467 73.9491 84.855 73.6575C84.5633 73.3658 84.2925 73.1158 84.0425 72.9075C84.3758 72.2408 84.6883 71.5741 84.98 70.9075C85.2717 70.2408 85.5217 69.5533 85.73 68.845H88.105C89.4383 68.845 90.5842 68.3762 91.5425 67.4387C92.5008 66.5012 92.98 65.345 92.98 63.97V57.97C92.98 56.595 92.5008 55.4387 91.5425 54.5012C90.5842 53.5637 89.4383 53.095 88.105 53.095ZM89.23 63.97C89.23 64.3033 89.1154 64.5741 88.8863 64.7825C88.6571 64.9908 88.3967 65.095 88.105 65.095H84.2925C83.8758 65.095 83.5008 65.2304 83.1675 65.5012C82.8342 65.7721 82.605 66.1158 82.48 66.5325C82.23 67.5325 81.9071 68.5116 81.5113 69.47C81.1154 70.4283 80.6467 71.3658 80.105 72.2825C79.8967 72.6158 79.8238 73.0012 79.8863 73.4387C79.9488 73.8762 80.1258 74.2408 80.4175 74.5325C80.4175 74.5325 80.6988 74.8137 81.2613 75.3762C81.8238 75.9387 82.4383 76.5533 83.105 77.22C83.3133 77.4283 83.4175 77.6887 83.4175 78.0012C83.4175 78.3137 83.3133 78.595 83.105 78.845L78.855 83.095C78.605 83.3033 78.3238 83.4075 78.0113 83.4075C77.6988 83.4075 77.4383 83.3033 77.23 83.095C76.5633 82.4283 75.9488 81.8137 75.3863 81.2512C74.8238 80.6887 74.5425 80.4075 74.5425 80.4075C74.2508 80.1158 73.8863 79.9387 73.4488 79.8762C73.0113 79.8137 72.6258 79.8866 72.2925 80.095C71.3758 80.6366 70.4383 81.1054 69.48 81.5012C68.5217 81.8971 67.5425 82.22 66.5425 82.47C66.1258 82.595 65.7821 82.8241 65.5113 83.1575C65.2404 83.4908 65.105 83.8658 65.105 84.2825V88.095C65.105 88.3866 65.0008 88.6471 64.7925 88.8762C64.5842 89.1054 64.3133 89.22 63.98 89.22H57.98C57.6467 89.22 57.3758 89.1054 57.1675 88.8762C56.9592 88.6471 56.855 88.3866 56.855 88.095V84.2825C56.855 83.8658 56.7196 83.4908 56.4488 83.1575C56.1779 82.8241 55.8342 82.595 55.4175 82.47C54.4175 82.22 53.4383 81.8971 52.48 81.5012C51.5217 81.1054 50.5842 80.6366 49.6675 80.095C49.2092 79.845 48.7717 79.7825 48.355 79.9075C47.9383 80.0325 47.6258 80.1991 47.4175 80.4075C47.4175 80.4075 47.1363 80.6887 46.5738 81.2512C46.0113 81.8137 45.3967 82.4283 44.73 83.095C44.5217 83.3033 44.2613 83.4075 43.9488 83.4075C43.6363 83.4075 43.355 83.3033 43.105 83.095L38.855 78.845C38.6467 78.595 38.5425 78.3137 38.5425 78.0012C38.5425 77.6887 38.6467 77.4283 38.855 77.22C39.5217 76.5533 40.1363 75.9387 40.6988 75.3762C41.2613 74.8137 41.5425 74.5325 41.5425 74.5325C41.8342 74.2408 42.0113 73.8762 42.0738 73.4387C42.1363 73.0012 42.0633 72.6158 41.855 72.2825C41.3133 71.3658 40.8446 70.4283 40.4488 69.47C40.0529 68.5116 39.73 67.5325 39.48 66.5325C39.355 66.1158 39.1258 65.7721 38.7925 65.5012C38.4592 65.2304 38.0842 65.095 37.6675 65.095H33.855C33.5633 65.095 33.3029 64.9908 33.0738 64.7825C32.8446 64.5741 32.73 64.3033 32.73 63.97V57.97C32.73 57.6366 32.8446 57.3658 33.0738 57.1575C33.3029 56.9491 33.5633 56.845 33.855 56.845H37.6675C38.0842 56.845 38.4592 56.7096 38.7925 56.4387C39.1258 56.1679 39.355 55.8241 39.48 55.4075C39.73 54.4075 40.0529 53.4283 40.4488 52.47C40.8446 51.5116 41.3133 50.5741 41.855 49.6575C42.0633 49.3241 42.1363 48.9387 42.0738 48.5012C42.0113 48.0637 41.8342 47.6991 41.5425 47.4075C41.5425 47.4075 41.2613 47.1262 40.6988 46.5637C40.1363 46.0012 39.5217 45.3866 38.855 44.72C38.6467 44.5116 38.5425 44.2512 38.5425 43.9387C38.5425 43.6262 38.6467 43.345 38.855 43.095L43.105 38.845C43.355 38.6366 43.6363 38.5325 43.9488 38.5325C44.2613 38.5325 44.5217 38.6366 44.73 38.845C45.3967 39.5116 46.0113 40.1262 46.5738 40.6887C47.1363 41.2512 47.4175 41.5325 47.4175 41.5325C47.7092 41.8241 48.0738 42.0012 48.5113 42.0637C48.9488 42.1262 49.3342 42.0533 49.6675 41.845C50.5842 41.3033 51.5217 40.8346 52.48 40.4387C53.4383 40.0429 54.4175 39.72 55.4175 39.47C55.8342 39.345 56.1779 39.1158 56.4488 38.7825C56.7196 38.4491 56.855 38.0741 56.855 37.6575V33.845C56.855 33.5533 56.9592 33.2929 57.1675 33.0637C57.3758 32.8346 57.6467 32.72 57.98 32.72H63.98C64.3133 32.72 64.5842 32.8346 64.7925 33.0637C65.0008 33.2929 65.105 33.5533 65.105 33.845V37.6575C65.105 38.0741 65.2404 38.4491 65.5113 38.7825C65.7821 39.1158 66.1258 39.345 66.5425 39.47C67.5425 39.72 68.5217 40.0429 69.48 40.4387C70.4383 40.8346 71.3758 41.3033 72.2925 41.845C72.6258 42.0533 73.0113 42.1262 73.4488 42.0637C73.8863 42.0012 74.2508 41.8241 74.5425 41.5325C74.5425 41.5325 74.8238 41.2512 75.3863 40.6887C75.9488 40.1262 76.5633 39.5116 77.23 38.845C77.4383 38.6366 77.6988 38.5325 78.0113 38.5325C78.3238 38.5325 78.605 38.6366 78.855 38.845L83.105 43.095C83.3133 43.345 83.4175 43.6262 83.4175 43.9387C83.4175 44.2512 83.3133 44.5116 83.105 44.72C82.4383 45.3866 81.8238 46.0012 81.2613 46.5637C80.6988 47.1262 80.4175 47.4075 80.4175 47.4075C80.1258 47.6991 79.9488 48.0637 79.8863 48.5012C79.8238 48.9387 79.8967 49.3241 80.105 49.6575C80.6467 50.5741 81.1154 51.5116 81.5113 52.47C81.9071 53.4283 82.23 54.4075 82.48 55.4075C82.605 55.8241 82.8342 56.1679 83.1675 56.4387C83.5008 56.7096 83.8758 56.845 84.2925 56.845H88.105C88.3967 56.845 88.6571 56.9491 88.8863 57.1575C89.1154 57.3658 89.23 57.6366 89.23 57.97V63.97ZM60.98 45.0325C58.7717 45.0325 56.7092 45.4491 54.7925 46.2825C52.8342 47.1158 51.1363 48.2512 49.6988 49.6887C48.2613 51.1262 47.1258 52.8241 46.2925 54.7825C45.4592 56.6991 45.0425 58.7616 45.0425 60.97C45.0425 63.1783 45.4592 65.2408 46.2925 67.1575C47.1258 69.1158 48.2613 70.8137 49.6988 72.2512C51.1363 73.6887 52.8342 74.8241 54.7925 75.6575C56.7092 76.4908 58.7717 76.9075 60.98 76.9075C63.1883 76.9075 65.2508 76.4908 67.1675 75.6575C69.1258 74.8241 70.8238 73.6887 72.2613 72.2512C73.6988 70.8137 74.8342 69.1158 75.6675 67.1575C76.5008 65.2408 76.9175 63.1783 76.9175 60.97C76.9175 58.7616 76.5008 56.6991 75.6675 54.7825C74.8342 52.8241 73.6988 51.1262 72.2613 49.6887C70.8238 48.2512 69.1258 47.1158 67.1675 46.2825C65.2508 45.4491 63.1883 45.0325 60.98 45.0325ZM60.98 73.1575C59.3133 73.1575 57.73 72.845 56.23 72.22C54.7717 71.5533 53.4904 70.6679 52.3863 69.5637C51.2821 68.4596 50.3967 67.1783 49.73 65.72C49.105 64.22 48.7925 62.6366 48.7925 60.97C48.7925 59.3033 49.105 57.72 49.73 56.22C50.3967 54.7616 51.2821 53.4804 52.3863 52.3762C53.4904 51.2721 54.7717 50.3866 56.23 49.72C57.73 49.095 59.3133 48.7825 60.98 48.7825C62.6467 48.7825 64.23 49.095 65.73 49.72C67.1883 50.3866 68.4696 51.2721 69.5738 52.3762C70.6779 53.4804 71.5633 54.7616 72.23 56.22C72.855 57.72 73.1675 59.3033 73.1675 60.97C73.1675 62.6366 72.855 64.22 72.23 65.72C71.5633 67.1783 70.6779 68.4596 69.5738 69.5637C68.4696 70.6679 67.1883 71.5533 65.73 72.22C64.23 72.845 62.6467 73.1575 60.98 73.1575Z" fill="#006699"/>
</g>
<defs>
<clipPath id="clip0_2_88">
<rect width="64" height="64" fill="white" transform="matrix(1 0 0 -1 28.98 92.97)"/>
</clipPath>
</defs>
</svg>
