<svg width="122" height="123" viewBox="0 0 122 123" fill="none" xmlns="http://www.w3.org/2000/svg">
<rect x="1" y="1.96997" width="119.59" height="119.59" rx="59.795" stroke="#006699" stroke-width="2"/>
<g clip-path="url(#clip0_2_81)">
<path d="M60.8 60.97C60.4667 60.97 60.175 61.095 59.925 61.345C59.675 61.595 59.55 61.8866 59.55 62.22C59.55 62.5533 59.675 62.845 59.925 63.095C60.175 63.345 60.4667 63.47 60.8 63.47C61.1333 63.47 61.425 63.345 61.675 63.095C61.925 62.845 62.05 62.5533 62.05 62.22C62.05 61.8866 61.925 61.595 61.675 61.345C61.425 61.095 61.1333 60.97 60.8 60.97ZM84.6125 46.845C85.4458 46.1366 86.1229 45.2721 86.6437 44.2512C87.1646 43.2304 87.425 42.1366 87.425 40.97C87.425 38.8866 86.6958 37.1158 85.2375 35.6575C83.7792 34.1991 82.0083 33.47 79.925 33.47C77.8417 33.47 76.0708 34.1991 74.6125 35.6575C73.1542 37.1158 72.425 38.8866 72.425 40.97C72.425 42.1366 72.6854 43.2304 73.2062 44.2512C73.7271 45.2721 74.4042 46.1366 75.2375 46.845C74.2792 47.22 73.3625 47.6887 72.4875 48.2512C71.6125 48.8137 70.8417 49.47 70.175 50.22C69.5083 49.47 68.7792 48.8137 67.9875 48.2512C67.1958 47.6887 66.3417 47.22 65.425 46.845C66.3 46.1783 66.9979 45.3346 67.5187 44.3137C68.0396 43.2929 68.3 42.1783 68.3 40.97C68.3 38.8866 67.5708 37.1158 66.1125 35.6575C64.6542 34.1991 62.8833 33.47 60.8 33.47C58.7167 33.47 56.9458 34.1991 55.4875 35.6575C54.0292 37.1158 53.3 38.8866 53.3 40.97C53.3 42.1783 53.5604 43.2929 54.0812 44.3137C54.6021 45.3346 55.3 46.1783 56.175 46.845C55.2583 47.22 54.4042 47.6887 53.6125 48.2512C52.8208 48.8137 52.0917 49.47 51.425 50.22C50.7583 49.47 49.9875 48.8137 49.1125 48.2512C48.2375 47.6887 47.3208 47.22 46.3625 46.845C47.1958 46.1366 47.8729 45.2721 48.3937 44.2512C48.9146 43.2304 49.175 42.1366 49.175 40.97C49.175 38.8866 48.4458 37.1158 46.9875 35.6575C45.5292 34.1991 43.7583 33.47 41.675 33.47C39.5917 33.47 37.8208 34.1991 36.3625 35.6575C34.9042 37.1158 34.175 38.8866 34.175 40.97C34.175 42.1366 34.4354 43.2304 34.9562 44.2512C35.4771 45.2721 36.1542 46.1366 36.9875 46.845C34.9042 47.6366 33.1229 48.9075 31.6437 50.6575C30.1646 52.4075 29.2583 54.4075 28.925 56.6575C28.8833 56.7408 28.8521 56.8346 28.8312 56.9387C28.8104 57.0429 28.8 57.1366 28.8 57.22C28.8 61.5116 29.6542 65.5533 31.3625 69.345C33.0708 73.1366 35.3833 76.4491 38.3 79.2825C41.2167 82.1158 44.6125 84.3658 48.4875 86.0325C52.3625 87.6575 56.4667 88.47 60.8 88.47C63.5917 88.47 66.3417 88.1158 69.05 87.4075C71.7167 86.6575 74.2479 85.6158 76.6437 84.2825C79.0396 82.9491 81.2375 81.3241 83.2375 79.4075C85.2375 77.4491 86.9667 75.2825 88.425 72.9075C89.8417 70.5325 90.925 68.0116 91.675 65.345C92.425 62.6783 92.8 59.97 92.8 57.22C92.8 57.1366 92.7896 57.0429 92.7687 56.9387C92.7479 56.8346 92.7167 56.7408 92.675 56.6575C92.3417 54.4075 91.4354 52.4075 89.9562 50.6575C88.4771 48.9075 86.6958 47.6366 84.6125 46.845ZM74.925 40.97C74.925 39.595 75.4146 38.4179 76.3937 37.4387C77.3729 36.4596 78.55 35.97 79.925 35.97C81.3 35.97 82.4771 36.4596 83.4562 37.4387C84.4354 38.4179 84.925 39.595 84.925 40.97C84.925 42.345 84.4354 43.5221 83.4562 44.5012C82.4771 45.4804 81.3 45.97 79.925 45.97C78.55 45.97 77.3729 45.4804 76.3937 44.5012C75.4146 43.5221 74.925 42.345 74.925 40.97ZM79.925 48.47C82.3 48.47 84.425 49.1783 86.3 50.595C88.175 52.0116 89.4042 53.8033 89.9875 55.97H73.05C72.925 55.345 72.7479 54.72 72.5187 54.095C72.2896 53.47 72.0083 52.8658 71.675 52.2825C72.6333 51.1158 73.8521 50.1887 75.3312 49.5012C76.8104 48.8137 78.3417 48.47 79.925 48.47ZM49.4875 73.47H59.55V85.845C57.55 85.4283 55.6646 84.1366 53.8937 81.97C52.1229 79.8033 50.6542 76.97 49.4875 73.47ZM62.05 85.845V73.47H72.1125C70.9458 76.97 69.4771 79.8033 67.7062 81.97C65.9354 84.1366 64.05 85.4283 62.05 85.845ZM62.05 70.97V67.22C62.05 66.8866 61.925 66.595 61.675 66.345C61.425 66.095 61.1333 65.97 60.8 65.97C60.4667 65.97 60.175 66.095 59.925 66.345C59.675 66.595 59.55 66.8866 59.55 67.22V70.97H48.7375C48.2375 69.0533 47.8417 67.0429 47.55 64.9387C47.2583 62.8346 47.0917 60.6783 47.05 58.47H74.55C74.5083 60.6783 74.3417 62.8346 74.05 64.9387C73.7583 67.0429 73.3625 69.0533 72.8625 70.97H62.05ZM55.8 40.97C55.8 39.595 56.2896 38.4179 57.2687 37.4387C58.2479 36.4596 59.425 35.97 60.8 35.97C62.175 35.97 63.3521 36.4596 64.3312 37.4387C65.3104 38.4179 65.8 39.595 65.8 40.97C65.8 42.345 65.3104 43.5221 64.3312 44.5012C63.3521 45.4804 62.175 45.97 60.8 45.97C59.425 45.97 58.2479 45.4804 57.2687 44.5012C56.2896 43.5221 55.8 42.345 55.8 40.97ZM60.8 48.47C62.4667 48.47 64.0396 48.8658 65.5187 49.6575C66.9979 50.4491 68.1958 51.5325 69.1125 52.9075C69.1125 52.9075 69.1125 52.9179 69.1125 52.9387C69.1125 52.9596 69.1125 52.97 69.1125 52.97C69.4458 53.4283 69.7271 53.9075 69.9562 54.4075C70.1854 54.9075 70.3625 55.4283 70.4875 55.97H51.1125C51.2375 55.4283 51.4146 54.9075 51.6437 54.4075C51.8729 53.9075 52.1542 53.4283 52.4875 52.97C52.4875 52.97 52.4875 52.9596 52.4875 52.9387C52.4875 52.9179 52.4875 52.9075 52.4875 52.9075C53.4042 51.5325 54.6021 50.4491 56.0812 49.6575C57.5604 48.8658 59.1333 48.47 60.8 48.47ZM36.675 40.97C36.675 39.595 37.1646 38.4179 38.1437 37.4387C39.1229 36.4596 40.3 35.97 41.675 35.97C43.05 35.97 44.2271 36.4596 45.2062 37.4387C46.1854 38.4179 46.675 39.595 46.675 40.97C46.675 42.345 46.1854 43.5221 45.2062 44.5012C44.2271 45.4804 43.05 45.97 41.675 45.97C40.3 45.97 39.1229 45.4804 38.1437 44.5012C37.1646 43.5221 36.675 42.345 36.675 40.97ZM41.675 48.47C43.2583 48.47 44.7896 48.8137 46.2687 49.5012C47.7479 50.1887 48.9667 51.1158 49.925 52.2825C49.5917 52.8658 49.3104 53.47 49.0812 54.095C48.8521 54.72 48.675 55.345 48.55 55.97H31.6125C32.1958 53.8033 33.425 52.0116 35.3 50.595C37.175 49.1783 39.3 48.47 41.675 48.47ZM44.55 58.47C44.5917 60.6366 44.7479 62.7721 45.0187 64.8762C45.2896 66.9804 45.675 69.0116 46.175 70.97H34.9875C33.8625 69.0533 32.9979 67.0325 32.3937 64.9075C31.7896 62.7825 31.425 60.6366 31.3 58.47H44.55ZM36.55 73.47H46.8625C47.5292 75.5116 48.3833 77.5637 49.425 79.6262C50.4667 81.6887 51.7375 83.47 53.2375 84.97C51.5708 84.5533 49.9667 83.97 48.425 83.22C46.8417 82.5116 45.3417 81.6679 43.925 80.6887C42.5083 79.7096 41.175 78.6158 39.925 77.4075C38.7167 76.1991 37.5917 74.8866 36.55 73.47ZM68.3625 84.97C69.8625 83.47 71.1333 81.6887 72.175 79.6262C73.2167 77.5637 74.0708 75.5116 74.7375 73.47H85.05C84.0083 74.8866 82.8833 76.1991 81.675 77.4075C80.425 78.6158 79.0917 79.7096 77.675 80.6887C76.2583 81.6679 74.7583 82.5116 73.175 83.22C71.6333 83.97 70.0292 84.5533 68.3625 84.97ZM86.6125 70.97H75.425C75.925 69.0116 76.3104 66.9804 76.5812 64.8762C76.8521 62.7721 77.0083 60.6366 77.05 58.47H90.3C90.175 60.6366 89.8104 62.7825 89.2062 64.9075C88.6021 67.0325 87.7375 69.0533 86.6125 70.97Z" fill="#006699"/>
</g>
<defs>
<clipPath id="clip0_2_81">
<rect width="64" height="64" fill="white" transform="matrix(1 0 0 -1 28.8 92.97)"/>
</clipPath>
</defs>
</svg>
