<svg width="122" height="123" viewBox="0 0 122 123" fill="none" xmlns="http://www.w3.org/2000/svg">
<rect x="1.38" y="1.96997" width="119.59" height="119.59" rx="59.795" stroke="#006699" stroke-width="2"/>
<g clip-path="url(#clip0_2_95)">
<path d="M83.17 46.97H81.17V44.97C81.17 44.4283 80.9721 43.9596 80.5763 43.5637C80.1804 43.1679 79.7117 42.97 79.17 42.97H75.9825C75.9825 42.97 75.9721 42.9596 75.9513 42.9387C75.9304 42.9179 75.92 42.8866 75.92 42.845C75.92 42.845 75.92 42.8346 75.92 42.8137C75.92 42.7929 75.8992 42.7616 75.8575 42.72L78.17 40.47C78.545 40.095 78.7325 39.6262 78.7325 39.0637C78.7325 38.5012 78.545 38.0325 78.17 37.6575L72.4825 31.97C72.0658 31.595 71.5867 31.4075 71.045 31.4075C70.5033 31.4075 70.045 31.595 69.67 31.97L67.42 34.2825L67.295 34.22L67.17 34.1575V30.97C67.17 30.4283 66.9721 29.9596 66.5763 29.5637C66.1804 29.1679 65.7117 28.97 65.17 28.97H57.17C56.6283 28.97 56.1596 29.1679 55.7638 29.5637C55.3679 29.9596 55.17 30.4283 55.17 30.97V34.1575L55.045 34.22L54.92 34.2825L52.67 31.97C52.295 31.595 51.8367 31.4075 51.295 31.4075C50.7533 31.4075 50.2742 31.595 49.8575 31.97L44.17 37.6575C43.795 38.0325 43.6075 38.5012 43.6075 39.0637C43.6075 39.6262 43.795 40.095 44.17 40.47L46.4825 42.72C46.4408 42.7616 46.42 42.7929 46.42 42.8137C46.42 42.8346 46.42 42.845 46.42 42.845L46.3575 42.97H43.17C42.6283 42.97 42.1596 43.1679 41.7638 43.5637C41.3679 43.9596 41.17 44.4283 41.17 44.97V46.97H39.17C37.5033 46.97 36.0867 47.5533 34.92 48.72C33.7533 49.8866 33.17 51.3033 33.17 52.97V78.97C33.17 80.6366 33.7533 82.0533 34.92 83.22C36.0867 84.3866 37.5033 84.97 39.17 84.97H54.6075L53.6075 88.97H51.17C50.6283 88.97 50.1596 89.1679 49.7638 89.5637C49.3679 89.9596 49.17 90.4283 49.17 90.97C49.17 91.5116 49.3679 91.9804 49.7638 92.3762C50.1596 92.7721 50.6283 92.97 51.17 92.97H71.17C71.7117 92.97 72.1804 92.7721 72.5763 92.3762C72.9721 91.9804 73.17 91.5116 73.17 90.97C73.17 90.4283 72.9721 89.9596 72.5763 89.5637C72.1804 89.1679 71.7117 88.97 71.17 88.97H68.7325L67.7325 84.97H83.17C84.8367 84.97 86.2533 84.3866 87.42 83.22C88.5867 82.0533 89.17 80.6366 89.17 78.97V52.97C89.17 51.3033 88.5867 49.8866 87.42 48.72C86.2533 47.5533 84.8367 46.97 83.17 46.97ZM45.17 46.97H47.7325C48.1908 46.97 48.5971 46.8346 48.9513 46.5637C49.3054 46.2929 49.545 45.9491 49.67 45.5325C49.67 45.4908 49.6804 45.4596 49.7013 45.4387C49.7221 45.4179 49.7325 45.4075 49.7325 45.4075C49.7325 45.3241 49.7429 45.2616 49.7638 45.22C49.7846 45.1783 49.8158 45.1366 49.8575 45.095C49.8992 44.97 49.9408 44.845 49.9825 44.72C50.0242 44.595 50.0658 44.4908 50.1075 44.4075C50.1492 44.2825 50.2013 44.1575 50.2638 44.0325C50.3263 43.9075 50.3783 43.8033 50.42 43.72C50.4617 43.6366 50.4929 43.5741 50.5138 43.5325C50.5346 43.4908 50.545 43.4491 50.545 43.4075C50.545 43.3658 50.5554 43.3346 50.5763 43.3137C50.5971 43.2929 50.6075 43.2825 50.6075 43.2825C50.8158 42.8658 50.8888 42.4387 50.8263 42.0012C50.7638 41.5637 50.5867 41.1991 50.295 40.9075L48.42 39.095L51.295 36.22L53.1075 38.095C53.3992 38.3866 53.7638 38.5637 54.2013 38.6262C54.6388 38.6887 55.0658 38.6158 55.4825 38.4075C55.4825 38.4075 55.4929 38.3971 55.5138 38.3762C55.5346 38.3554 55.5658 38.345 55.6075 38.345C55.6492 38.345 55.7013 38.3346 55.7638 38.3137C55.8263 38.2929 55.8783 38.2616 55.92 38.22C56.0033 38.1783 56.1075 38.1262 56.2325 38.0637C56.3575 38.0012 56.4617 37.9491 56.545 37.9075C56.67 37.8658 56.795 37.8241 56.92 37.7825C57.045 37.7408 57.17 37.6991 57.295 37.6575C57.3367 37.6158 57.3888 37.5846 57.4513 37.5637C57.5138 37.5429 57.5658 37.5325 57.6075 37.5325C57.6075 37.5325 57.6283 37.5221 57.67 37.5012C57.7117 37.4804 57.7325 37.47 57.7325 37.47C58.1492 37.345 58.4929 37.1054 58.7638 36.7512C59.0346 36.3971 59.17 35.9908 59.17 35.5325V32.97H63.17V35.5325C63.17 35.9908 63.3054 36.3971 63.5763 36.7512C63.8471 37.1054 64.1908 37.345 64.6075 37.47C64.6075 37.47 64.6283 37.4804 64.67 37.5012C64.7117 37.5221 64.7325 37.5325 64.7325 37.5325C64.7742 37.5325 64.8263 37.5429 64.8888 37.5637C64.9513 37.5846 65.0033 37.6158 65.045 37.6575C65.17 37.6991 65.295 37.7408 65.42 37.7825C65.545 37.8241 65.6492 37.8658 65.7325 37.9075C65.8575 37.9491 65.9721 38.0012 66.0763 38.0637C66.1804 38.1262 66.295 38.1783 66.42 38.22C66.4617 38.22 66.5138 38.2408 66.5763 38.2825C66.6388 38.3241 66.6908 38.345 66.7325 38.345C66.7742 38.345 66.8054 38.3554 66.8263 38.3762C66.8471 38.3971 66.8575 38.4075 66.8575 38.4075C67.2742 38.6158 67.7013 38.6887 68.1388 38.6262C68.5763 38.5637 68.9408 38.3866 69.2325 38.095L71.045 36.22L73.92 39.095L72.045 40.9075C71.7533 41.1991 71.5763 41.5637 71.5138 42.0012C71.4513 42.4387 71.5242 42.8658 71.7325 43.2825C71.7325 43.2825 71.7429 43.2929 71.7638 43.3137C71.7846 43.3346 71.795 43.3658 71.795 43.4075C71.795 43.4491 71.8054 43.5012 71.8263 43.5637C71.8471 43.6262 71.8783 43.6783 71.92 43.72C71.9617 43.8033 72.0138 43.9075 72.0763 44.0325C72.1388 44.1575 72.1908 44.2825 72.2325 44.4075C72.2742 44.4908 72.3158 44.595 72.3575 44.72C72.3992 44.845 72.4408 44.97 72.4825 45.095C72.5242 45.1366 72.5554 45.1887 72.5763 45.2512C72.5971 45.3137 72.6075 45.3658 72.6075 45.4075C72.6075 45.4075 72.6179 45.4283 72.6388 45.47C72.6596 45.5116 72.67 45.5325 72.67 45.5325C72.795 45.9491 73.0346 46.2929 73.3888 46.5637C73.7429 46.8346 74.1492 46.97 74.6075 46.97H77.17V50.97H74.6075C74.1492 50.97 73.7429 51.1054 73.3888 51.3762C73.0346 51.6471 72.795 51.9908 72.67 52.4075C72.67 52.4491 72.6596 52.4804 72.6388 52.5012C72.6179 52.5221 72.6075 52.5325 72.6075 52.5325C72.6075 52.6158 72.5971 52.6783 72.5763 52.72C72.5554 52.7616 72.5242 52.8033 72.4825 52.845C72.4408 52.97 72.3992 53.095 72.3575 53.22C72.3158 53.345 72.2742 53.4491 72.2325 53.5325C72.1908 53.6575 72.1388 53.7825 72.0763 53.9075C72.0138 54.0325 71.9617 54.1366 71.92 54.22C71.8783 54.3033 71.8471 54.3658 71.8263 54.4075C71.8054 54.4491 71.795 54.4908 71.795 54.5325C71.795 54.5741 71.7846 54.6054 71.7638 54.6262C71.7429 54.6471 71.7325 54.6575 71.7325 54.6575C71.5242 55.0741 71.4513 55.5012 71.5138 55.9387C71.5763 56.3762 71.7533 56.7408 72.045 57.0325L73.92 58.845L71.045 61.72L69.2325 59.845C68.9408 59.5533 68.5763 59.3762 68.1388 59.3137C67.7013 59.2512 67.2742 59.3241 66.8575 59.5325C66.8575 59.5325 66.8471 59.5429 66.8263 59.5637C66.8054 59.5846 66.7742 59.595 66.7325 59.595C66.6908 59.595 66.6388 59.6054 66.5763 59.6262C66.5138 59.6471 66.4617 59.6783 66.42 59.72C66.3367 59.7616 66.2325 59.8137 66.1075 59.8762C65.9825 59.9387 65.8783 59.9908 65.795 60.0325C65.67 60.0741 65.545 60.1158 65.42 60.1575C65.295 60.1991 65.17 60.2408 65.045 60.2825C65.0033 60.3241 64.9513 60.3554 64.8888 60.3762C64.8263 60.3971 64.7742 60.4075 64.7325 60.4075C64.7325 60.4075 64.7117 60.4179 64.67 60.4387C64.6283 60.4596 64.6075 60.47 64.6075 60.47C64.1908 60.595 63.8471 60.8346 63.5763 61.1887C63.3054 61.5429 63.17 61.9491 63.17 62.4075V64.97H59.17V62.4075C59.17 61.9491 59.0346 61.5429 58.7638 61.1887C58.4929 60.8346 58.1492 60.595 57.7325 60.47C57.7325 60.47 57.7117 60.4596 57.67 60.4387C57.6283 60.4179 57.6075 60.4075 57.6075 60.4075C57.5658 60.4075 57.5138 60.3971 57.4513 60.3762C57.3888 60.3554 57.3367 60.3241 57.295 60.2825C57.17 60.2408 57.045 60.1991 56.92 60.1575C56.795 60.1158 56.6908 60.0741 56.6075 60.0325C56.4825 59.9908 56.3679 59.9387 56.2638 59.8762C56.1596 59.8137 56.045 59.7616 55.92 59.72C55.8783 59.72 55.8263 59.6991 55.7638 59.6575C55.7013 59.6158 55.6492 59.595 55.6075 59.595C55.5658 59.595 55.5346 59.5846 55.5138 59.5637C55.4929 59.5429 55.4825 59.5325 55.4825 59.5325C55.0658 59.3241 54.6388 59.2512 54.2013 59.3137C53.7638 59.3762 53.3992 59.5533 53.1075 59.845L51.295 61.72L48.42 58.845L50.295 57.0325C50.3367 56.9491 50.3888 56.8658 50.4513 56.7825C50.5138 56.6991 50.5867 56.6158 50.67 56.5325C50.795 56.2408 50.8575 55.9283 50.8575 55.595C50.8575 55.2616 50.7742 54.9491 50.6075 54.6575C50.6075 54.6575 50.5971 54.6471 50.5763 54.6262C50.5554 54.6054 50.545 54.5741 50.545 54.5325C50.545 54.4908 50.5346 54.4387 50.5138 54.3762C50.4929 54.3137 50.4617 54.2616 50.42 54.22C50.3783 54.1366 50.3263 54.0325 50.2638 53.9075C50.2013 53.7825 50.1492 53.6575 50.1075 53.5325C50.0658 53.4491 50.0242 53.345 49.9825 53.22C49.9408 53.095 49.8992 52.97 49.8575 52.845C49.8158 52.8033 49.7846 52.7512 49.7638 52.6887C49.7429 52.6262 49.7325 52.5741 49.7325 52.5325C49.7325 52.5325 49.7221 52.5116 49.7013 52.47C49.6804 52.4283 49.67 52.4075 49.67 52.4075C49.545 51.9908 49.3054 51.6471 48.9513 51.3762C48.5971 51.1054 48.1908 50.97 47.7325 50.97H45.17V46.97ZM64.6075 88.97H57.7325L58.7325 84.97H63.6075L64.6075 88.97ZM85.17 78.97C85.17 79.5116 84.9721 79.9804 84.5763 80.3762C84.1804 80.7721 83.7117 80.97 83.17 80.97H39.17C38.6283 80.97 38.1596 80.7721 37.7638 80.3762C37.3679 79.9804 37.17 79.5116 37.17 78.97V52.97C37.17 52.4283 37.3679 51.9596 37.7638 51.5637C38.1596 51.1679 38.6283 50.97 39.17 50.97H41.17V52.97C41.17 53.5116 41.3679 53.9804 41.7638 54.3762C42.1596 54.7721 42.6283 54.97 43.17 54.97H46.3575C46.3575 54.97 46.3679 54.9804 46.3888 55.0012C46.4096 55.0221 46.42 55.0533 46.42 55.095C46.42 55.095 46.42 55.1054 46.42 55.1262C46.42 55.1471 46.4408 55.1783 46.4825 55.22L44.17 57.47C43.795 57.845 43.6075 58.3137 43.6075 58.8762C43.6075 59.4387 43.795 59.9075 44.17 60.2825L49.8575 65.97C50.2325 66.345 50.7013 66.5325 51.2638 66.5325C51.8263 66.5325 52.295 66.345 52.67 65.97L54.92 63.6575L55.045 63.72L55.17 63.7825V66.97C55.17 67.5116 55.3679 67.9804 55.7638 68.3762C56.1596 68.7721 56.6283 68.97 57.17 68.97H65.17C65.7117 68.97 66.1804 68.7721 66.5763 68.3762C66.9721 67.9804 67.17 67.5116 67.17 66.97V63.7825L67.295 63.72L67.42 63.6575L69.67 65.97C70.045 66.345 70.5033 66.5325 71.045 66.5325C71.5867 66.5325 72.0658 66.345 72.4825 65.97L78.1075 60.2825C78.5242 59.9075 78.7325 59.4387 78.7325 58.8762C78.7325 58.3137 78.5242 57.845 78.1075 57.47L75.8575 55.22C75.8992 55.1783 75.92 55.1471 75.92 55.1262C75.92 55.1054 75.92 55.095 75.92 55.095L75.9825 54.97H79.17C79.7117 54.97 80.1804 54.7721 80.5763 54.3762C80.9721 53.9804 81.17 53.5116 81.17 52.97V50.97H83.17C83.7117 50.97 84.1804 51.1679 84.5763 51.5637C84.9721 51.9596 85.17 52.4283 85.17 52.97V78.97ZM61.17 54.97C62.8367 54.97 64.2533 54.3866 65.42 53.22C66.5867 52.0533 67.17 50.6366 67.17 48.97C67.17 47.3033 66.5867 45.8866 65.42 44.72C64.2533 43.5533 62.8367 42.97 61.17 42.97C59.5033 42.97 58.0867 43.5533 56.92 44.72C55.7533 45.8866 55.17 47.3033 55.17 48.97C55.17 50.6366 55.7533 52.0533 56.92 53.22C58.0867 54.3866 59.5033 54.97 61.17 54.97ZM61.17 46.97C61.7117 46.97 62.1804 47.1679 62.5763 47.5637C62.9721 47.9596 63.17 48.4283 63.17 48.97C63.17 49.5116 62.9721 49.9804 62.5763 50.3762C62.1804 50.7721 61.7117 50.97 61.17 50.97C60.6283 50.97 60.1596 50.7721 59.7638 50.3762C59.3679 49.9804 59.17 49.5116 59.17 48.97C59.17 48.4283 59.3679 47.9596 59.7638 47.5637C60.1596 47.1679 60.6283 46.97 61.17 46.97Z" fill="#006699"/>
</g>
<defs>
<clipPath id="clip0_2_95">
<rect width="64" height="64" fill="white" transform="matrix(1 0 0 -1 29.17 92.97)"/>
</clipPath>
</defs>
</svg>
